<?xml version="1.0" standalone="no"?>
<!DOCTYPE svg PUBLIC "-//W3C//DTD SVG 20010904//EN"
 "http://www.w3.org/TR/2001/REC-SVG-20010904/DTD/svg10.dtd">
<svg version="1.0" xmlns="http://www.w3.org/2000/svg"
 width="1024.000000pt" height="1024.000000pt" viewBox="0 0 1024.000000 1024.000000"
 preserveAspectRatio="xMidYMid meet">
<metadata>
Created by potrace 1.14, written by Peter Selinger 2001-2017
</metadata>
<g transform="translate(0.000000,1024.000000) scale(0.100000,-0.100000)"
fill="#000000" stroke="none">
<path d="M3705 8938 c-141 -10 -184 -16 -265 -33 -14 -3 -35 -7 -48 -10 -12
-2 -50 -11 -85 -20 -34 -9 -69 -18 -77 -20 -27 -6 -164 -56 -207 -76 -24 -10
-46 -19 -49 -19 -14 0 -211 -104 -287 -152 -333 -208 -575 -463 -754 -794 -27
-50 -62 -122 -77 -160 -15 -38 -34 -82 -41 -99 -8 -16 -61 -149 -120 -295 -58
-146 -111 -276 -116 -290 -6 -14 -32 -77 -58 -140 l-46 -115 -616 -2 c-398 -1
-630 -5 -656 -12 -91 -25 -166 -128 -165 -231 0 -73 116 -530 150 -593 31 -57
96 -103 161 -113 25 -4 135 -7 244 -7 l199 0 -60 -61 c-89 -92 -108 -115 -161
-191 -113 -164 -186 -367 -206 -575 -6 -68 -7 -1153 -1 -1205 13 -101 19 -138
37 -205 45 -170 124 -325 244 -475 l32 -40 0 -545 c0 -300 3 -573 7 -608 15
-138 74 -252 191 -368 63 -63 100 -90 166 -122 46 -23 98 -44 114 -47 17 -2
50 -8 75 -13 25 -4 216 -7 425 -7 424 2 450 5 581 70 166 84 313 275 340 443
5 26 9 50 10 55 1 4 2 165 3 357 l1 350 2550 0 2550 0 1 -342 c1 -386 2 -408
31 -492 79 -227 284 -399 518 -434 30 -4 224 -7 430 -6 313 1 386 4 444 18
215 52 409 244 467 461 20 77 21 104 22 658 l0 577 32 38 c98 115 192 291 236
445 26 90 33 129 45 242 5 55 5 1118 -1 1180 -11 124 -40 262 -72 335 -76 179
-151 295 -268 417 -47 49 -85 88 -85 89 0 1 96 1 213 1 230 1 273 7 330 50 56
43 83 110 149 374 51 207 59 254 55 309 -6 101 -66 180 -158 209 -25 8 -218
12 -653 13 -556 1 -618 2 -625 17 -5 9 -75 180 -156 381 -252 626 -274 675
-367 823 -114 182 -254 343 -418 481 -95 80 -225 176 -238 176 -5 0 -20 8 -33
19 -36 28 -222 127 -276 147 -27 10 -52 21 -58 24 -37 26 -285 100 -420 125
-119 22 -118 22 -210 31 -99 9 -2796 12 -2920 2z m2856 -1282 c107 -22 108
-22 174 -47 166 -62 349 -202 451 -344 59 -82 86 -144 285 -643 104 -262 196
-491 204 -509 8 -18 11 -34 7 -36 -4 -2 -1150 -3 -2547 -2 -2217 1 -2540 3
-2537 15 7 31 405 1017 429 1065 70 137 176 252 316 346 129 86 257 139 375
155 26 3 49 8 51 10 2 2 615 4 1361 4 1152 0 1369 -2 1431 -14z m-4469 -2557
c273 -76 649 -421 765 -700 49 -119 63 -240 37 -327 -22 -77 -67 -118 -174
-160 -94 -37 -142 -48 -257 -59 -92 -8 -550 -9 -608 -1 -155 22 -274 83 -383
198 -122 129 -179 342 -148 550 36 240 218 440 454 499 92 24 229 23 314 0z
m6458 -16 c148 -51 261 -144 334 -276 100 -181 106 -434 15 -620 -38 -76 -48
-91 -120 -164 -86 -87 -211 -149 -333 -166 -97 -14 -549 -15 -651 -2 -33 4
-69 9 -80 10 -76 10 -237 74 -273 108 -49 46 -66 95 -66 192 0 198 101 392
313 605 167 167 343 283 491 326 111 33 254 28 370 -13z"/>
</g>
</svg>
